<?xml version="1.0" encoding="UTF-8"?>
<svg id="Layer_1" xmlns="http://www.w3.org/2000/svg" version="1.1" viewBox="0 0 330.7 118.2">
  <!-- Generator: Adobe Illustrator 29.1.0, SVG Export Plug-In . SVG Version: 2.1.0 Build 142)  -->
  <defs>
    <style>
      .st0 {
        stroke: #000;
        stroke-miterlimit: 10;
		fill: white;
      }
    </style>
  </defs>
  <path class="st0" d="M108.6,28.5c2,.4,5,.1,3.9-2.3-1.2-.8-7.8,1.5-3.9,2.3ZM111.3,27.2c-.3.3-1.3.5-1.7.2.4-.2,1.3,0,1.7-.2Z"/>
  <path class="st0" d="M330,62.9c-47.4-13.2-97.6-11.5-146.4-10.7-4.4,0-8.5-3.6-12.9-2-2,.7-3.7,2.6-5.3,2.6-1.8,0-2.9-2-4.5-2.7-3-1.1-5.3,5.3-6.2,0-2.1-2.6-6.6,1.2-8.2,2-.2,0-2.4,1.2-2.9,1.2-.8,0-3.5-.3-3.1-.8.7-1.1,3-1.5,3.8-2.2.2-.2,3.3-1.4,1.8-2.4l-4.3,2.2c.4-.3-.1-.1-1-.4-.8-.3-.4-.9,3-2.6.8-.4,1.3-.6.5-1.2-.7-.5-3,1.2-3.4,1.4-2.8,1.5-2.8,1.5-4.6,2.4-6.5,3.1,13.7-14.5,15.6-15.7,7.5-6.3,15.2-12.7,21.7-20.2,1.5-1.7,2.5-1.2,1.3-2.7-.7-.8-2.3-3.6-2.6-1.9-1.7,9-14.9,16.8-20.5,22.3-6.8,6.8-8,7.9-14.9,14-12.1,10.9,4.4-20.2,5.4-22.7,2.6-5.2,8.4-10.4,10.8-12.2,3.8-2.9,2.1-4.5-3-4.2-7.3.4-6.4,2.6-14.5,24-2.8,7.4-1.6,4.2-4.7,11.4-.7,1.5-2.3,3.7-3.2.9-.4-1.3-2.4-2.4-4.8-2.9-9.3-2.1-9.4,8.7-13.1,7-.7-.8,2-4.3,0-3.5-1.5.7-4.2,3.2-6,3.6-4,.8-2.2-3.3-.9-5.1.8-3.1-7.2,6-9.9,1.6-4.5-3.5-3.4-5.2-1.6-10,2.7-10.6,7.5-20.2,12.2-29.8,1.5-3.2.6-6.2-2.6-2.8-3.8,5.2-7.7,17.5-9.1,18.6-3.5,2.6-7.4,5.1-.4-6.6,2.4-4,2-11-4.3-7.6-5.1,3.4-10.8,9.5-7.7,15.1,5.1,4.6-.6,14.2-3.7,18.6-6.4,9.1-4.5,6.5-9.8,5.6-5.3-.9-16.8-2.1-22-1.5-5.3.6-15.3,3.2-22.5,9.2-10.2,8.5-26.5,30.4-17.7,53.4,1.5,3.8,2.3,4.3,4.4,6,4.4,3.5,9.7,6.1,19.9,6.1s16.5-3.4,30.3-16.2c5.2-4.8,9.2-16.8,17.4-35.1,8.9-19.8,6-18.4,26.5-11.5,10.5,2.3-13.1,24.5-.9,24.6,2,.2,11.9-9.3,10.3-4.8-2.1,5.7-5.1,11.5-7.6,16.9-.8,3-6.4,10-1.4,11.5,6.2,1.5,10.6-26.9,15.9-32.1,8.1-13,8-7.6,19.7-1.4,1.9,1.2,4.7,2.5,3.2,1-2.8-2.5-6.5-4.3-9.7-6.3-10.1-4-2.4-11.2,4.2-6.8,18.7,11,28.2,30.9,42.7,46.1,9.2,12.8,27.5.4,21.8-1.1-7.1,3.7-14.8,6.1-21-.8-11-10.8-17.2-25.3-29-35.5-1.1-2.1-18.3-11.8-12-12.3,2.6.5,4.2,1,6.7,1.7,4.1.5,8.7-.7,12.6,1,2.1.6,3,2.3,5.1,3.3,1.8.8,5.4,2.9,5.9.4.2-.9.8-4.2,2.1-4.3,49-4,70.4-1.1,84.8-1.5,11.2-.4,22.3,1.8,33.5,3.5,5.3.6,10.7-.2,15.6,2,6,3,12.6,4.8,18.7,7.6,2.4,1.1,6.3,4.1,8.1.8,1-1.9.5-4.2-1.6-5.1ZM85.3,10.8c.4-.7.9-2.2,1.8-2,0,0,0,0,0,0h0s0,0,0,0c0,3.2-2.6,6.2-3.8,9.1-.2.3-.5,1-.8,1.1-1-2.9,1.6-5.5,2.9-8.1ZM78.3,53.2c-1.6,2.6-3,5.2-4.3,8.1-11,22.4-11.2,39.5-35,49.1-2,.8-9,3.5-13.5,3.6-5.8.2-10.9-1.3-12.6-2.7-16.3-13-.4-43.2,2-47.1,11.1-18.2,26.9-22.7,46.3-18.3,3.4.5,5.4.5,7.9,1.6,1.5.7,4,.9,0,6.7-4.5,6.4-5.8,10-13.1,11.8-1.2.8-4.2-.6-2,1.5,2.2,2,4.5,1.2,6.5-.5,6-4,9.8-11.4,14.7-16.3,2-1.4,5-.2,3.2,2.5ZM87.5,45.5s0,0,0,0c-1,1-.5,2.7-2.6,2.2-1.1-.3,0-1.9.6-2.1.5-.1,2-.9,1.9-.1,0,0,0,0,0,0h0ZM81.5,45.4c-1.5,1.9-6,2.7-5.8-.6.4-2.3,2.2-4.3,3-6.4,3.1-6.1,5.8-14.3,13.1-15.9.3,1.6-1.4,3.9-2,5.5-2.7,6-4.3,12.2-8.4,17.4ZM94.1,49.2c0-.3.7-.5,1-.6,1.3.3,2.7,1.2,3.9,1.8-1.2.6-3.8-.7-4.9-1.1ZM101.3,51.5c1.7-1,3.8-.3,5.7-.4.4,0,1.2-.2,1.4.2-.8,3.9-4.9,1.5-7.1.2ZM117.8,62.7c-8.2,8.7-9.8,10.5-11.6,12.1-1.3,1.1-5.4,4.6-5.6.2h0c.7-3.9,2.5-7.7,4.3-11.5,2.2-4.6,2.6-7.8,8.6-5.8,1.3.4,2.8,1.4,4.4,2,.8.3,1.8,1,0,3ZM120.5,57.6c-1.9,1.5-4,0-6.1-1-1.5-.8-3.6-1-4.7-2.4-1.2-4.8,9-4.1,11.8-3.8h0c5,.9.9,5.2-1,7.1ZM125.9,47.9c-.8,1.6-11.2,0-11.3.2-3.2,0,2.7-5.7,4.3-6.3,0,0,3.1-.4,4.4,0,2.1.7,3.3,4.8,2.6,6.1ZM148.5,53.3h0c-.2-.5,1.5-2.4,3.4-2.1.5,0,1.4.4,1.4.8,0,.9-4.5,1.9-4.8,1.2ZM157.5,54.5c-.3-.1.7-1.9,2.3-2.2l2.7,1.6s0,0,0,0h0s0,0,0,0c-1.4.6-4.3.9-5,.6ZM168.1,56.8c-.1.5.5,2.9-2.9,2.9h0c-1.6-.7-1.9-1.1-2.9-2.1-1.2-1.2-.3-1.4.4-1.5,1.6-.2,5.8-1.8,5.3.7ZM170.3,53.4c-1.5,0-.2-1.8,1.9-2.2,1.9-.4,4.5.4,5.2,1.5h0c1.1,1.5-5.4.8-7,.7Z"/>
  <path class="st0" d="M78.4,40c0,0-.3-.1-.2-.3h-.2c-.1.5.1.5.4.3Z"/>
</svg>